# xmcd
#
# Track frame offsets:
#	183
#	11630
#	23183
#	34358
#	48863
#	60355
#	75065
#	89203
#	100318
#	111998
#	126875
#	140430
#	153445
#	172765
#	187433
#	198195
#	208760
#	218998
#	234660
#
# Disc length: 3294 seconds
#
# Revision: 0
# Processed by: cddbd v1.4PL0 Copyright (c) Steve Scherf et al.
# Submitted via: audiograbber 1.80.04
#
DISCID=090cdc13
DTITLE=Oneil Devost - Mes Meilleurs Succés
DYEAR=1900
DGENRE=Pop
TTITLE0=Je Suis Moi-Même
TTITLE1=Pourquoi?
TTITLE2=Le Country C'est L'fun
TTITLE3=Ëtre Seul
TTITLE4=La Foire Brayonne
TTITLE5=La Loi Humaine
TTITLE6=Hey! Oneil
TTITLE7=Ma Musique C'est Mon Coeur
TTITLE8=Pars Si tu M'aimes
TTITLE9=Je T'Attend Toujours
TTITLE10=En Harley Davidson
TTITLE11=Rue Pogne-Pogne
TTITLE12=Trop Jeune Encore
TTITLE13=Je Pleure Dans Mes Rêves
TTITLE14=En Ton Amour
TTITLE15=La Pollution
TTITLE16=Bien Sur La Route
TTITLE17=Ça Prend Toute Sorte De Monde
TTITLE18=On S'aime
EXTD=
EXTT0=
EXTT1=
EXTT2=
EXTT3=
EXTT4=
EXTT5=
EXTT6=
EXTT7=
EXTT8=
EXTT9=
EXTT10=
EXTT11=
EXTT12=
EXTT13=
EXTT14=
EXTT15=
EXTT16=
EXTT17=
EXTT18=
PLAYORDER=
